<?xml version="1.0" encoding="utf-8"?>
<!-- Generator: Adobe Illustrator 24.3.0, SVG Export Plug-In . SVG Version: 6.00 Build 0)  -->
<svg version="1.1" id="Ebene_1" xmlns="http://www.w3.org/2000/svg" xmlns:xlink="http://www.w3.org/1999/xlink" x="0px" y="0px"
	 viewBox="0 0 24 24" enable-background="new 0 0 24 24" xml:space="preserve">
<g>
	<path fill="#000000" d="M11.969,0C5.614,0,0.402,4.944,0,11.207c0,0,0,0.01,0.01,0.01l0,0l6.448,2.658
		c0.175-0.113,0.361-0.216,0.567-0.299c0.453-0.185,0.927-0.268,1.401-0.247l2.936-4.264c0-0.021,0-0.041,0-0.062
		c0-2.513,2.05-4.563,4.563-4.563s4.563,2.05,4.563,4.563s-2.039,4.563-4.563,4.563c-0.031,0-0.072,0-0.103,0l-4.213,2.997
		c0.01,0.464-0.072,0.927-0.258,1.37c-0.7,1.7-2.658,2.503-4.347,1.792c-1.04-0.433-1.741-1.329-1.967-2.348l-4.553-1.875
		C1.988,20.415,6.561,24,11.969,24c6.623,0,12-5.377,12-12S18.592,0,11.969,0z"/>
	<path fill="#000000" d="M7.447,18.376l-1.483-0.618c0.268,0.546,0.721,1.009,1.318,1.257c1.308,0.546,2.812-0.072,3.358-1.391l0,0
		c0.268-0.628,0.268-1.329,0-1.967c-0.258-0.639-0.752-1.133-1.391-1.391c-0.628-0.258-1.298-0.258-1.895-0.031l1.535,0.639
		c0.968,0.402,1.421,1.514,1.02,2.472C9.518,18.324,8.415,18.778,7.447,18.376z"/>
	<path fill="#000000" d="M18.942,8.992c0-1.679-1.36-3.039-3.039-3.039s-3.039,1.37-3.039,3.039c0,1.679,1.36,3.039,3.039,3.039
		C17.583,12.041,18.942,10.671,18.942,8.992z M13.638,8.992c0-1.267,1.02-2.287,2.276-2.287c1.257,0,2.287,1.02,2.287,2.287
		s-1.02,2.287-2.287,2.287C14.658,11.279,13.638,10.249,13.638,8.992z"/>
</g>
</svg>
